# xmcd
#
# Track frame offsets:
#	150
#	20375
#	53770
#	177262
#	227427
#	281067
#	295796
#
# Disc length: 4268 seconds
#
# Revision: 0
# Processed by: cddbd v1.4PL0 Copyright (c) Steve Scherf et al.
# Submitted via: audiograbber 1.81.02
#
DISCID=5810aa07
DTITLE=Emerson, Lake and Palmer - Live
DYEAR=1900
DGENRE=Alternative
TTITLE0=Hoedown
TTITLE1=Toccata
TTITLE2=Tarkus
TTITLE3=Take a Pebble
TTITLE4=Piano Improvisations
TTITLE5=Take a Pebble(Conclusion)
TTITLE6=Jeremy Bender/The Sheriff
EXTD=
EXTT0=
EXTT1=
EXTT2=
EXTT3=
EXTT4=
EXTT5=
EXTT6=
PLAYORDER=
